<svg width="180" height="78" viewBox="0 0 180 78" fill="none" xmlns="http://www.w3.org/2000/svg">
<path d="M24.6001 28.7L33.5758 53.3L43.5487 28.7L52.5244 53.3L61.5001 28.7" stroke="black" stroke-width="4.1" stroke-linecap="round" stroke-linejoin="round"/>
<circle cx="153.75" cy="41" r="14.35" stroke="black" stroke-width="4.1"/>
<path d="M130.584 29.9599C128.053 27.891 124.818 26.65 121.293 26.65C113.178 26.65 106.6 33.2283 106.6 41.3431C106.6 49.4579 113.178 56.0362 121.293 56.0362C124.818 56.0362 128.053 54.7952 130.584 52.7262V43.3931" stroke="black" stroke-width="4.1" stroke-linecap="round" stroke-linejoin="round"/>
<circle cx="84.0501" cy="41" r="14.35" stroke="#00C9EC" stroke-width="4.1"/>
<circle cx="82.0002" cy="43.05" r="2.05" fill="#00C9EC"/>
<circle cx="90.2001" cy="43.05" r="2.05" fill="#00C9EC"/>
<path d="M70.7251 38.95L74.0842 37.4231C79.3209 35.0428 84.9344 33.5993 90.6698 33.1581L95.3251 32.8" stroke="#00C9EC" stroke-width="4.1"/>
<path d="M69.7001 43.05L65.5001 47.8501C64.3403 49.1756 65.2816 51.25 67.0429 51.25H72.7751" stroke="#00C9EC" stroke-width="4.1" stroke-linecap="round" stroke-linejoin="round"/>
</svg>
